<svg width="176" height="50" viewBox="0 0 176 50" fill="none" xmlns="http://www.w3.org/2000/svg">
<path d="M27.3704 14.6636C27.3704 18.2142 26.0082 21.4458 23.779 23.8634L23.7744 23.8679C23.6106 24.0284 23.4505 24.1934 23.294 24.362L23.2894 24.3666C21.0611 26.7841 19.6989 30.0157 19.6989 33.5663C19.6989 34.7104 19.84 35.8216 20.1066 36.8827C16.2859 35.3476 13.3259 32.1178 12.154 28.1214C11.7982 26.9072 11.6071 25.6218 11.6071 24.2918C11.6071 20.8889 12.8582 17.7785 14.9237 15.3983C14.9538 15.3637 14.9847 15.3291 15.0147 15.2944L23.6789 5.35718C25.1229 6.88956 26.2148 8.75832 26.8226 10.834C26.8281 10.8495 26.8317 10.865 26.8363 10.8796C27.1838 12.0811 27.3704 13.35 27.3704 14.6636Z" fill="url(#paint0_linear_10848_3839)"/>
<path d="M21.989 35.0191C21.989 31.4685 23.3511 28.2369 25.5804 25.8194L25.5849 25.8148C25.7487 25.6544 25.9088 25.4894 26.0653 25.3207L26.0699 25.3162C28.2983 22.8986 29.6604 19.6671 29.6604 16.1164C29.6604 14.9724 29.5194 13.8611 29.2528 12.8C33.0735 14.3352 36.0334 17.5649 37.2054 21.5613C37.5611 22.7756 37.7522 24.0609 37.7522 25.3909C37.7522 28.7939 36.5011 31.9042 34.4356 34.2844C34.4056 34.319 34.3746 34.3537 34.3446 34.3883L25.6805 44.3256C24.2364 42.7932 23.1445 40.9244 22.5367 38.8487C22.5313 38.8332 22.5276 38.8177 22.5231 38.8032C22.1755 37.6017 21.989 36.3327 21.989 35.0191Z" fill="url(#paint1_linear_10848_3839)"/>
<path d="M161.793 35.1959C160.15 35.1959 158.881 34.7759 157.985 33.9359C157.089 33.0772 156.641 31.8172 156.641 30.1559V16.7439H160.141V30.0719C160.141 30.7812 160.318 31.3319 160.673 31.7239C161.046 32.1159 161.56 32.3119 162.213 32.3119C162.997 32.3119 163.65 32.1066 164.173 31.6959L165.153 34.1879C164.742 34.5239 164.238 34.7759 163.641 34.9439C163.044 35.1119 162.428 35.1959 161.793 35.1959ZM154.177 22.9599V20.1599H164.145V22.9599H154.177Z" fill="white"/>
<path d="M145.481 19.8799C146.676 19.8799 147.74 20.1132 148.673 20.5799C149.625 21.0465 150.372 21.7652 150.913 22.7359C151.455 23.6879 151.725 24.9199 151.725 26.4319V34.9999H148.225V26.8799C148.225 25.5545 147.908 24.5652 147.273 23.9119C146.657 23.2585 145.789 22.9319 144.669 22.9319C143.848 22.9319 143.12 23.0999 142.485 23.4359C141.851 23.7719 141.356 24.2759 141.001 24.9479C140.665 25.6012 140.497 26.4319 140.497 27.4399V34.9999H136.997V20.0479H140.329V24.0799L139.741 22.8479C140.264 21.8959 141.02 21.1679 142.009 20.6639C143.017 20.1412 144.175 19.8799 145.481 19.8799Z" fill="white"/>
<path d="M126.607 35.1959C124.946 35.1959 123.49 34.8692 122.239 34.2159C121.007 33.5439 120.046 32.6292 119.355 31.4719C118.683 30.3146 118.347 28.9986 118.347 27.5239C118.347 26.0306 118.674 24.7146 119.327 23.5759C119.999 22.4186 120.914 21.5132 122.071 20.8599C123.247 20.2066 124.582 19.8799 126.075 19.8799C127.531 19.8799 128.829 20.1972 129.967 20.8319C131.106 21.4665 132.002 22.3625 132.655 23.5199C133.309 24.6772 133.635 26.0399 133.635 27.6079C133.635 27.7572 133.626 27.9252 133.607 28.1119C133.607 28.2985 133.598 28.4759 133.579 28.6439H121.119V26.3199H131.731L130.359 27.0479C130.378 26.1892 130.201 25.4332 129.827 24.7799C129.454 24.1265 128.941 23.6132 128.287 23.2399C127.653 22.8665 126.915 22.6799 126.075 22.6799C125.217 22.6799 124.461 22.8665 123.807 23.2399C123.173 23.6132 122.669 24.1359 122.295 24.8079C121.941 25.4612 121.763 26.2359 121.763 27.1319V27.6919C121.763 28.5879 121.969 29.3812 122.379 30.0719C122.79 30.7626 123.369 31.2945 124.115 31.6679C124.862 32.0412 125.721 32.2279 126.691 32.2279C127.531 32.2279 128.287 32.0972 128.959 31.8359C129.631 31.5746 130.229 31.1639 130.751 30.6039L132.627 32.7599C131.955 33.5439 131.106 34.1506 130.079 34.5799C129.071 34.9906 127.914 35.1959 126.607 35.1959Z" fill="white"/>
<path d="M106.685 35.1961C105.247 35.1961 103.95 34.8788 102.793 34.2441C101.654 33.5908 100.758 32.6948 100.105 31.5561C99.4512 30.4175 99.1245 29.0735 99.1245 27.5241C99.1245 25.9748 99.4512 24.6308 100.105 23.4921C100.758 22.3535 101.654 21.4668 102.793 20.8321C103.95 20.1975 105.247 19.8801 106.685 19.8801C107.935 19.8801 109.055 20.1601 110.045 20.7201C111.034 21.2615 111.818 22.0921 112.397 23.2121C112.975 24.3321 113.265 25.7695 113.265 27.5241C113.265 29.2601 112.985 30.6975 112.425 31.8361C111.865 32.9561 111.09 33.7961 110.101 34.3561C109.111 34.9161 107.973 35.1961 106.685 35.1961ZM107.105 32.2001C107.945 32.2001 108.691 32.0135 109.345 31.6401C110.017 31.2668 110.549 30.7255 110.941 30.0161C111.351 29.3068 111.557 28.4761 111.557 27.5241C111.557 26.5535 111.351 25.7228 110.941 25.0321C110.549 24.3228 110.017 23.7815 109.345 23.4081C108.691 23.0348 107.945 22.8481 107.105 22.8481C106.265 22.8481 105.509 23.0348 104.837 23.4081C104.183 23.7815 103.651 24.3228 103.241 25.0321C102.849 25.7228 102.653 26.5535 102.653 27.5241C102.653 28.4761 102.849 29.3068 103.241 30.0161C103.651 30.7255 104.183 31.2668 104.837 31.6401C105.509 32.0135 106.265 32.2001 107.105 32.2001ZM111.641 35.0001V31.4721L111.781 27.4961L111.501 23.5201V14.2241H114.973V35.0001H111.641Z" fill="white"/>
<path d="M88.8722 34.9999V20.0479H92.2042V24.1639L91.8122 22.9599C92.2602 21.9519 92.9602 21.1865 93.9122 20.6639C94.8829 20.1412 96.0869 19.8799 97.5242 19.8799V23.2119C97.3749 23.1746 97.2349 23.1559 97.1042 23.1559C96.9735 23.1372 96.8429 23.1279 96.7122 23.1279C95.3869 23.1279 94.3322 23.5199 93.5482 24.3039C92.7642 25.0692 92.3722 26.2172 92.3722 27.7479V34.9999H88.8722Z" fill="white"/>
<path d="M78.4822 35.1959C76.8208 35.1959 75.3648 34.8692 74.1142 34.2159C72.8822 33.5439 71.9208 32.6292 71.2302 31.4719C70.5582 30.3146 70.2222 28.9986 70.2222 27.5239C70.2222 26.0306 70.5488 24.7146 71.2022 23.5759C71.8742 22.4186 72.7888 21.5132 73.9462 20.8599C75.1222 20.2066 76.4568 19.8799 77.9502 19.8799C79.4062 19.8799 80.7035 20.1972 81.8422 20.8319C82.9808 21.4665 83.8768 22.3625 84.5302 23.5199C85.1835 24.6772 85.5102 26.0399 85.5102 27.6079C85.5102 27.7572 85.5008 27.9252 85.4822 28.1119C85.4822 28.2985 85.4728 28.4759 85.4542 28.6439H72.9942V26.3199H83.6062L82.2342 27.0479C82.2528 26.1892 82.0755 25.4332 81.7022 24.7799C81.3288 24.1265 80.8155 23.6132 80.1622 23.2399C79.5275 22.8665 78.7902 22.6799 77.9502 22.6799C77.0915 22.6799 76.3355 22.8665 75.6822 23.2399C75.0475 23.6132 74.5435 24.1359 74.1702 24.8079C73.8155 25.4612 73.6382 26.2359 73.6382 27.1319V27.6919C73.6382 28.5879 73.8435 29.3812 74.2542 30.0719C74.6648 30.7626 75.2435 31.2945 75.9902 31.6679C76.7368 32.0412 77.5955 32.2279 78.5662 32.2279C79.4062 32.2279 80.1622 32.0972 80.8342 31.8359C81.5062 31.5746 82.1035 31.1639 82.6262 30.6039L84.5022 32.7599C83.8302 33.5439 82.9808 34.1506 81.9542 34.5799C80.9462 34.9906 79.7888 35.1959 78.4822 35.1959Z" fill="white"/>
<path d="M58.6917 34.9999L50.1237 15.3999H54.0717L61.7157 33.1239H59.4477L67.1757 15.3999H70.8157L62.2757 34.9999H58.6917Z" fill="white"/>
<defs>
<linearGradient id="paint0_linear_10848_3839" x1="25.2329" y1="-0.970481" x2="17.9553" y2="35.9086" gradientUnits="userSpaceOnUse">
<stop stop-color="#00FFF3"/>
<stop offset="0.363733" stop-color="#A2FFE4"/>
<stop offset="0.616204" stop-color="#15FF83"/>
<stop offset="1" stop-color="#0AA0FF"/>
</linearGradient>
<linearGradient id="paint1_linear_10848_3839" x1="33.6738" y1="13.2659" x2="26.3962" y2="50.145" gradientUnits="userSpaceOnUse">
<stop stop-color="#0AA0FF"/>
<stop offset="0.383796" stop-color="#15FF83"/>
<stop offset="0.636267" stop-color="#A2FFE4"/>
<stop offset="1" stop-color="#00FFF3"/>
</linearGradient>
</defs>
</svg>
