<svg width="236" height="60" viewBox="0 0 236 60" fill="none" xmlns="http://www.w3.org/2000/svg">
<path d="M33.2914 17.4632C33.2914 21.8367 31.6244 25.8172 28.8962 28.7949L28.8906 28.8006C28.6902 28.9982 28.4942 29.2014 28.3027 29.4091L28.2971 29.4148C25.57 32.3926 23.903 36.3731 23.903 40.7465C23.903 42.1557 24.0756 43.5245 24.4019 44.8315C19.726 42.9406 16.1036 38.9623 14.6693 34.0398C14.2339 32.5441 14.0001 30.9609 14.0001 29.3227C14.0001 25.1311 15.5312 21.2999 18.059 18.3682C18.0957 18.3255 18.1336 18.2828 18.1704 18.2402L28.7737 6C30.5409 7.88751 31.8772 10.1893 32.6211 12.7461C32.6277 12.7652 32.6322 12.7843 32.6378 12.8022C33.0631 14.2821 33.2914 15.8451 33.2914 17.4632Z" fill="url(#paint0_linear_49_278)"/>
<path d="M26.7085 42.5368C26.7085 38.1633 28.3755 34.1828 31.1037 31.205L31.1093 31.1994C31.3097 31.0018 31.5057 30.7986 31.6973 30.5908L31.7028 30.5852C34.4299 27.6074 36.0969 23.6269 36.0969 19.2534C36.0969 17.8443 35.9243 16.4755 35.5981 15.1685C40.2739 17.0594 43.8963 21.0376 45.3306 25.9602C45.766 27.4558 45.9999 29.0391 45.9999 30.6773C45.9999 34.8689 44.4687 38.7 41.9409 41.6318C41.9042 41.6745 41.8663 41.7171 41.8296 41.7598L31.2262 54C29.459 52.1125 28.1227 49.8106 27.3789 47.2539C27.3722 47.2348 27.3677 47.2157 27.3622 47.1978C26.9368 45.7179 26.7085 44.1548 26.7085 42.5368Z" fill="url(#paint1_linear_49_278)"/>
<path d="M72.1064 44L59.7989 15.8455H65.47L76.4503 41.3052H73.1924L84.2933 15.8455H89.522L77.2547 44H72.1064ZM100.535 44.2815C98.1482 44.2815 96.0567 43.8123 94.2602 42.8738C92.4905 41.9085 91.1096 40.5946 90.1174 38.9322C89.1521 37.2697 88.6695 35.3794 88.6695 33.2611C88.6695 31.116 89.1387 29.2256 90.0772 27.59C91.0425 25.9275 92.3564 24.627 94.0188 23.6886C95.7081 22.7501 97.6253 22.2808 99.7704 22.2808C101.862 22.2808 103.725 22.7367 105.361 23.6483C106.997 24.56 108.284 25.8471 109.222 27.5095C110.161 29.172 110.63 31.1294 110.63 33.3817C110.63 33.5962 110.617 33.8376 110.59 34.1057C110.59 34.3738 110.576 34.6286 110.55 34.8699H92.6513V31.5316H107.895L105.924 32.5773C105.951 31.3439 105.696 30.2579 105.16 29.3194C104.624 28.381 103.886 27.6436 102.948 27.1073C102.036 26.571 100.977 26.3029 99.7704 26.3029C98.537 26.3029 97.451 26.571 96.5125 27.1073C95.6009 27.6436 94.8769 28.3944 94.3406 29.3597C93.8312 30.2982 93.5764 31.4109 93.5764 32.698V33.5024C93.5764 34.7895 93.8714 35.929 94.4613 36.9212C95.0512 37.9133 95.8824 38.6775 96.955 39.2137C98.0275 39.75 99.2609 40.0182 100.655 40.0182C101.862 40.0182 102.948 39.8305 103.913 39.4551C104.878 39.0797 105.736 38.4898 106.487 37.6854L109.182 40.7823C108.217 41.9085 106.997 42.78 105.522 43.3967C104.074 43.9866 102.412 44.2815 100.535 44.2815ZM115.459 44V22.5222H120.246V28.4346L119.682 26.7051C120.326 25.2572 121.332 24.1578 122.699 23.407C124.093 22.6562 125.823 22.2808 127.887 22.2808V27.0671C127.673 27.0135 127.472 26.9866 127.284 26.9866C127.096 26.9598 126.909 26.9464 126.721 26.9464C124.817 26.9464 123.302 27.5095 122.176 28.6357C121.05 29.7351 120.487 31.3841 120.487 33.5828V44H115.459ZM141.046 44.2815C138.981 44.2815 137.118 43.8257 135.455 42.914C133.82 41.9756 132.533 40.6885 131.594 39.0529C130.656 37.4172 130.186 35.4866 130.186 33.2611C130.186 31.0355 130.656 29.1049 131.594 27.4693C132.533 25.8337 133.82 24.56 135.455 23.6483C137.118 22.7367 138.981 22.2808 141.046 22.2808C142.842 22.2808 144.451 22.683 145.872 23.4874C147.294 24.265 148.42 25.4583 149.251 27.0671C150.082 28.6759 150.498 30.7406 150.498 33.2611C150.498 35.7548 150.096 37.8194 149.291 39.4551C148.487 41.0639 147.374 42.2705 145.953 43.0749C144.532 43.8793 142.896 44.2815 141.046 44.2815ZM141.649 39.9779C142.856 39.9779 143.928 39.7098 144.867 39.1735C145.832 38.6372 146.596 37.8596 147.159 36.8407C147.749 35.8218 148.044 34.6286 148.044 33.2611C148.044 31.8668 147.749 30.6735 147.159 29.6814C146.596 28.6625 145.832 27.8849 144.867 27.3486C143.928 26.8124 142.856 26.5442 141.649 26.5442C140.443 26.5442 139.357 26.8124 138.391 27.3486C137.453 27.8849 136.689 28.6625 136.099 29.6814C135.536 30.6735 135.254 31.8668 135.254 33.2611C135.254 34.6286 135.536 35.8218 136.099 36.8407C136.689 37.8596 137.453 38.6372 138.391 39.1735C139.357 39.7098 140.443 39.9779 141.649 39.9779ZM148.165 44V38.9322L148.366 33.2209L147.964 27.5095V14.1562H152.951V44H148.165ZM169.664 44.2815C167.277 44.2815 165.186 43.8123 163.389 42.8738C161.62 41.9085 160.239 40.5946 159.247 38.9322C158.281 37.2697 157.799 35.3794 157.799 33.2611C157.799 31.116 158.268 29.2256 159.207 27.59C160.172 25.9275 161.486 24.627 163.148 23.6886C164.837 22.7501 166.755 22.2808 168.9 22.2808C170.991 22.2808 172.855 22.7367 174.49 23.6483C176.126 24.56 177.413 25.8471 178.352 27.5095C179.29 29.172 179.759 31.1294 179.759 33.3817C179.759 33.5962 179.746 33.8376 179.719 34.1057C179.719 34.3738 179.706 34.6286 179.679 34.8699H161.781V31.5316H177.024L175.053 32.5773C175.08 31.3439 174.826 30.2579 174.289 29.3194C173.753 28.381 173.016 27.6436 172.077 27.1073C171.165 26.571 170.106 26.3029 168.9 26.3029C167.666 26.3029 166.58 26.571 165.642 27.1073C164.73 27.6436 164.006 28.3944 163.47 29.3597C162.96 30.2982 162.706 31.4109 162.706 32.698V33.5024C162.706 34.7895 163.001 35.929 163.591 36.9212C164.18 37.9133 165.012 38.6775 166.084 39.2137C167.157 39.75 168.39 40.0182 169.785 40.0182C170.991 40.0182 172.077 39.8305 173.042 39.4551C174.008 39.0797 174.866 38.4898 175.617 37.6854L178.311 40.7823C177.346 41.9085 176.126 42.78 174.651 43.3967C173.203 43.9866 171.541 44.2815 169.664 44.2815ZM196.775 22.2808C198.492 22.2808 200.02 22.616 201.361 23.2863C202.728 23.9567 203.801 24.989 204.578 26.3833C205.356 27.7508 205.745 29.5206 205.745 31.6925V44H200.717V32.336C200.717 30.4322 200.261 29.0111 199.35 28.0726C198.465 27.1341 197.218 26.6649 195.609 26.6649C194.429 26.6649 193.384 26.9062 192.472 27.3889C191.56 27.8715 190.85 28.5955 190.34 29.5608C189.858 30.4993 189.616 31.6925 189.616 33.1404V44H184.589V22.5222H189.375V28.3139L188.53 26.5442C189.281 25.1767 190.367 24.131 191.788 23.407C193.236 22.6562 194.899 22.2808 196.775 22.2808ZM220.207 44.2815C217.847 44.2815 216.024 43.6782 214.737 42.4716C213.45 41.2382 212.806 39.4282 212.806 37.0418V17.7761H217.834V36.9212C217.834 37.9401 218.089 38.7311 218.598 39.2942C219.134 39.8573 219.872 40.1388 220.81 40.1388C221.936 40.1388 222.875 39.8439 223.626 39.254L225.033 42.8336C224.443 43.3162 223.719 43.6782 222.861 43.9196C222.003 44.1609 221.119 44.2815 220.207 44.2815ZM209.267 26.7051V22.683H223.585V26.7051H209.267Z" fill="black"/>
<defs>
<linearGradient id="paint0_linear_49_278" x1="28.3002" y1="6.57377" x2="19.1992" y2="44.7223" gradientUnits="userSpaceOnUse">
<stop stop-color="#2CDB7E"/>
<stop offset="1" stop-color="#0397F5"/>
</linearGradient>
<linearGradient id="paint1_linear_49_278" x1="41.0086" y1="15.7423" x2="31.9077" y2="53.8908" gradientUnits="userSpaceOnUse">
<stop stop-color="#0397F5"/>
<stop offset="1" stop-color="#2CDB7E"/>
</linearGradient>
</defs>
</svg>
